<svg width="22" height="24" viewBox="0 0 22 24" fill="none" xmlns="http://www.w3.org/2000/svg">
<path d="M0.60679 18C1.43395 19.4356 3.26831 19.9288 4.7039 19.1017C4.70488 19.1011 4.70582 19.1005 4.70681 19.1L5.15179 18.843C5.99179 19.5616 6.95732 20.119 7.99977 20.487V21C7.99977 22.6568 9.34293 24 10.9998 24C12.6566 24 13.9998 22.6568 13.9998 21V20.487C15.0424 20.1184 16.0079 19.5604 16.8478 18.841L17.2948 19.099C18.7307 19.9274 20.5664 19.4349 21.3948 17.999C22.2232 16.563 21.7307 14.7274 20.2948 13.899L19.8508 13.643C20.0506 12.5554 20.0506 11.4405 19.8508 10.353L20.2948 10.097C21.7307 9.26855 22.2232 7.43292 21.3948 5.99695C20.5664 4.56103 18.7307 4.06852 17.2948 4.89694L16.8498 5.15395C16.0089 4.43616 15.0427 3.87984 13.9998 3.513V3C13.9998 1.34316 12.6566 0 10.9998 0C9.34293 0 7.99977 1.34316 7.99977 3V3.513C6.95718 3.88158 5.9916 4.43958 5.15179 5.15902L4.70479 4.90003C3.26882 4.07156 1.4332 4.56408 0.604774 6C-0.223647 7.43592 0.268821 9.27159 1.70479 10.1L2.14879 10.356C1.94892 11.4435 1.94892 12.5584 2.14879 13.646L1.70479 13.902C0.272806 14.7326 -0.218069 16.5647 0.60679 18ZM10.9998 8.00002C13.2089 8.00002 14.9998 9.79088 14.9998 12C14.9998 14.2091 13.2089 16 10.9998 16C8.79065 16 6.99979 14.2091 6.99979 12C6.99979 9.79088 8.79065 8.00002 10.9998 8.00002Z" fill="white"/>
</svg>
